<svg version="1.2" xmlns="http://www.w3.org/2000/svg" viewBox="0 0 500 500" width="500" height="500">
	<title>agroCosts</title>
	<style>
		.s0 { fill: #cecece } 
		.s1 { fill: #125006 } 
		.s2 { fill: #0a3d00 } 
	</style>
	<path id="agro		osts" class="s0" aria-label="agro		osts"  d="m59.7 229.1c-6.5 0-13 1.7-17.4 4.8l4.2 8.2c2.9-2.3 7.3-3.7 11.6-3.7 6.3 0 9.3 2.9 9.3 7.9h-9.3c-12.3 0-17.3 5-17.3 12.1 0 7 5.6 12.2 15 12.2 6 0 10.2-2 12.4-5.6v5h10.9v-23c0-12.2-7.1-17.9-19.4-17.9zm-0.9 33.6c-4.2 0-6.6-1.9-6.6-4.8 0-2.7 1.7-4.8 7.2-4.8h8v4.2c-1.4 3.6-4.7 5.4-8.6 5.4zm61.9-33v5.1c-3.1-3.9-7.8-5.7-13.4-5.7-11.2 0-20.2 7.7-20.2 19.5 0 11.7 9 19.5 20.2 19.5 5.2 0 9.7-1.7 12.7-5.1v1.8c0 7.2-3.6 11-11.8 11-5.2 0-10.8-1.8-14.3-4.6l-4.6 8.4c4.7 3.7 12.2 5.5 19.8 5.5 14.6 0 22.6-6.8 22.6-21.8v-33.6zm-11 28.7c-6.1 0-10.6-3.9-10.6-9.8 0-6 4.5-9.9 10.6-9.9 6.2 0 10.6 3.9 10.6 9.9 0 5.9-4.4 9.8-10.6 9.8zm44.2-23.4v-5.3h-11.2v40.3h11.7v-19.1c0-7.7 4.3-11.2 10.7-11.2 0.9 0 1.7 0.1 2.7 0.2v-10.8c-6.3 0-11.1 2-13.9 5.9zm39.7 35.6c12.8 0 22.1-8.6 22.1-20.8 0-12.1-9.3-20.7-22.1-20.7-12.9 0-22.2 8.6-22.2 20.7 0 12.2 9.3 20.8 22.2 20.8zm0-9.6c-5.9 0-10.4-4.2-10.4-11.2 0-7 4.5-11.1 10.4-11.1 5.8 0 10.2 4.1 10.2 11.1 0 7-4.4 11.2-10.2 11.2zm121.1 9.6c12.8 0 22.1-8.6 22.1-20.8 0-12.1-9.3-20.7-22.1-20.7-12.8 0-22.2 8.6-22.2 20.7 0 12.2 9.4 20.8 22.2 20.8zm0-9.6c-5.9 0-10.4-4.2-10.4-11.2 0-7 4.5-11.1 10.4-11.1 5.8 0 10.3 4.1 10.3 11.1 0 7-4.5 11.2-10.3 11.2zm43.5 9.6c12.1 0 19-5.3 19-12.8 0-15.9-24.3-9.2-24.3-16.1 0-2.1 2.2-3.8 7.5-3.8 3.6 0 7.6 0.8 11.6 3l3.9-8.3c-3.8-2.3-10-3.5-15.5-3.5-11.8 0-18.7 5.3-18.7 13 0 16.1 24.4 9.4 24.4 16 0 2.2-2.1 3.7-7.4 3.7-5 0-10.5-1.6-14.1-3.9l-3.9 8.4c3.8 2.4 10.7 4.3 17.5 4.3zm49.1-10.8c-1.3 1-3 1.5-4.7 1.5-3.2 0-5-1.9-5-5.3v-16.4h10v-9h-10v-9.9h-11.7v9.9h-6.2v9h6.2v16.5c0 9.6 5.5 14.5 15 14.5 3.6 0 7.2-0.8 9.6-2.5zm23.3 10.8c12.1 0 19-5.4 19-12.9 0-15.9-24.3-9.2-24.3-16.1 0-2.1 2.2-3.7 7.5-3.7 3.7 0 7.6 0.7 11.6 3l3.9-8.4c-3.8-2.2-10-3.5-15.5-3.5-11.8 0-18.7 5.4-18.7 13.1 0 16.1 24.4 9.3 24.4 15.9 0 2.3-2 3.7-7.4 3.7-5 0-10.5-1.6-14.1-3.9l-3.9 8.4c3.8 2.5 10.7 4.4 17.5 4.4z"/>
	<path id="agro		osts" class="s1" aria-label="agro		osts"  d=""/>
	<path id="c" class="s2" aria-label="c"  d="m261.5 288.1c15.8 0 28.3-7 33.7-19l-16.9-9.3c-4.1 7.3-10.1 10.4-17 10.4-11 0-19.7-7.7-19.7-20.9 0-13.1 8.7-20.8 19.7-20.8 6.9 0 12.9 3.2 17 10.3l16.9-9.1c-5.4-12.3-17.9-19.1-33.7-19.1-24.5 0-42 16.1-42 38.7 0 22.7 17.5 38.8 42 38.8z"/>
</svg>